<svg width="189" height="49" viewBox="0 0 189 49" fill="none" xmlns="http://www.w3.org/2000/svg">
<path d="M8.26667 49L0 42.414V0L20.5333 9.74731L40 0V42.414L31.7333 49V13.9624L20.5333 20.5484L8.26667 13.9624V22.9194L20.5333 30.0323V40.3064L8.26667 32.4032V49Z" fill="white"/>
<path d="M65.8945 13.3926H55.6289V21.8477H65.1035V25.4512H55.6289V37H51.4102V9.77148H65.8945V13.3926Z" fill="white"/>
<path d="M69.0938 23.7285C69.0938 19.4277 70.2949 15.9531 72.6973 13.3047C75.1113 10.6445 78.3633 9.31445 82.4531 9.31445C86.2852 9.31445 89.3613 10.6035 91.6816 13.1816C94.002 15.7598 95.1621 19.0645 95.1621 23.0957C95.1621 27.373 93.9785 30.8359 91.6113 33.4844C89.2441 36.1328 86.0449 37.457 82.0137 37.457C78.1699 37.457 75.0527 36.1797 72.6621 33.625C70.2832 31.0703 69.0938 27.7715 69.0938 23.7285ZM73.5234 23.4297C73.5234 26.4297 74.291 28.9023 75.8262 30.8477C77.3613 32.7812 79.4355 33.748 82.0488 33.748C84.791 33.748 86.9238 32.8281 88.4473 30.9883C89.9707 29.1367 90.7324 26.6406 90.7324 23.5C90.7324 20.2891 89.9941 17.7461 88.5176 15.8711C87.0527 13.9961 84.9609 13.0586 82.2422 13.0586C79.5938 13.0586 77.4785 14.0312 75.8965 15.9766C74.3145 17.9219 73.5234 20.4062 73.5234 23.4297Z" fill="white"/>
<path d="M114.727 13.3926H104.461V21.8477H113.936V25.4512H104.461V37H100.242V9.77148H114.727V13.3926Z" fill="white"/>
<path d="M123.885 37H119.666V9.77148H123.885V37Z" fill="white"/>
<path d="M155.438 37V19.4219C155.438 17.8867 155.52 16.0645 155.684 13.9551H155.578C155.227 15.4668 154.951 16.457 154.752 16.9258L146.473 37H143.713L135.398 17.084C135.188 16.5801 134.912 15.5371 134.572 13.9551H134.467C134.584 15.5957 134.643 17.5762 134.643 19.8965V37H130.723V9.77148H136.611L143.977 27.7539C144.551 29.1602 144.932 30.3262 145.119 31.252H145.242C145.465 30.5137 145.875 29.3301 146.473 27.7012L153.961 9.77148H159.621V37H155.438Z" fill="white"/>
<path d="M188.52 37H183.879L181.33 29.916H170.432L168.006 37H163.365L173.631 9.77148H178.324L188.52 37ZM180.152 26.418L176.355 15.6777C176.215 15.291 176.074 14.6055 175.934 13.6211H175.811C175.705 14.4297 175.559 15.1035 175.371 15.6426L171.592 26.418H180.152Z" fill="white"/>
</svg>
